<svg width="89" height="51" viewBox="0 0 89 51" fill="none" xmlns="http://www.w3.org/2000/svg">
<mask id="path-1-outside-1_4452_595" maskUnits="userSpaceOnUse" x="-0.0627441" y="-0.832031" width="89" height="52" fill="black">
<rect fill="white" x="-0.0627441" y="-0.832031" width="89" height="52"/>
<path d="M1.66526 19.168V1.28797H4.92926V19.168H1.66526ZM10.0484 19.168V1.28797H16.7204C17.9364 1.28797 19.0084 1.51197 19.9364 1.95997C20.8804 2.39197 21.6164 3.03197 22.1444 3.87997C22.6724 4.71197 22.9364 5.72797 22.9364 6.92797C22.9364 8.11197 22.6644 9.12797 22.1204 9.97597C21.5924 10.808 20.8644 11.448 19.9364 11.896C19.0084 12.344 17.9364 12.568 16.7204 12.568H13.3124V19.168H10.0484ZM13.3124 9.68797H16.7684C17.3604 9.68797 17.8724 9.57597 18.3044 9.35197C18.7364 9.11197 19.0724 8.78397 19.3124 8.36797C19.5524 7.95197 19.6724 7.47197 19.6724 6.92797C19.6724 6.36797 19.5524 5.88797 19.3124 5.48797C19.0724 5.07197 18.7364 4.75197 18.3044 4.52797C17.8724 4.28797 17.3604 4.16797 16.7684 4.16797H13.3124V9.68797ZM27.2909 19.168V1.28797H39.2189V4.16797H30.5549V9.11197H38.1389V11.992H30.5549V19.168H27.2909ZM43.0334 19.168V1.28797H54.9134V4.16797H46.2974V8.75197H54.4334V11.632H46.2974V16.288H54.9134V19.168H43.0334ZM65.3708 19.456C64.2348 19.456 63.1788 19.248 62.2028 18.832C61.2428 18.416 60.4108 17.84 59.7068 17.104C59.0188 16.352 58.5148 15.48 58.1948 14.488L60.9068 13.312C61.3388 14.336 61.9628 15.144 62.7788 15.736C63.5948 16.312 64.5148 16.6 65.5388 16.6C66.1148 16.6 66.6108 16.512 67.0268 16.336C67.4588 16.144 67.7868 15.888 68.0108 15.568C68.2508 15.248 68.3708 14.864 68.3708 14.416C68.3708 13.888 68.2108 13.456 67.8908 13.12C67.5868 12.768 67.1228 12.496 66.4988 12.304L63.0668 11.2C61.6748 10.768 60.6268 10.12 59.9228 9.25597C59.2188 8.39197 58.8668 7.37597 58.8668 6.20797C58.8668 5.18397 59.1148 4.27997 59.6108 3.49597C60.1228 2.71197 60.8268 2.10397 61.7228 1.67197C62.6348 1.22397 63.6748 0.999968 64.8428 0.999968C65.9148 0.999968 66.8988 1.19197 67.7948 1.57597C68.6908 1.94397 69.4588 2.46397 70.0988 3.13597C70.7548 3.79197 71.2428 4.56797 71.5628 5.46397L68.8748 6.66397C68.5228 5.76797 67.9948 5.07997 67.2908 4.59997C66.5868 4.10397 65.7708 3.85597 64.8428 3.85597C64.2988 3.85597 63.8188 3.95197 63.4028 4.14397C62.9868 4.31997 62.6588 4.57597 62.4188 4.91197C62.1948 5.23197 62.0828 5.61597 62.0828 6.06397C62.0828 6.55997 62.2428 6.99997 62.5628 7.38397C62.8828 7.75197 63.3708 8.03997 64.0268 8.24797L67.3148 9.27997C68.7388 9.74397 69.8028 10.384 70.5068 11.2C71.2268 12.016 71.5868 13.024 71.5868 14.224C71.5868 15.248 71.3228 16.152 70.7948 16.936C70.2668 17.72 69.5388 18.336 68.6108 18.784C67.6828 19.232 66.6028 19.456 65.3708 19.456ZM79.3739 19.168V4.16797H74.7419V1.28797H87.2219V4.16797H82.6619V19.168H79.3739Z"/>
<path d="M1.32926 49.168V47.968L6.32126 42.472C7.29726 41.4 8.08926 40.512 8.69726 39.808C9.32126 39.104 9.78526 38.464 10.0893 37.888C10.3933 37.312 10.5453 36.688 10.5453 36.016C10.5453 34.944 10.2333 34.12 9.60926 33.544C8.98526 32.968 8.15326 32.68 7.11326 32.68C6.04126 32.68 5.13726 32.984 4.40126 33.592C3.68126 34.2 3.19326 35.048 2.93726 36.136L1.18526 35.752C1.39326 34.776 1.76926 33.936 2.31326 33.232C2.85726 32.528 3.53726 31.984 4.35326 31.6C5.16926 31.2 6.08126 31 7.08926 31C8.16126 31 9.09726 31.216 9.89726 31.648C10.6973 32.08 11.3213 32.672 11.7693 33.424C12.2333 34.176 12.4653 35.04 12.4653 36.016C12.4653 36.688 12.3213 37.336 12.0333 37.96C11.7613 38.584 11.3453 39.256 10.7853 39.976C10.2253 40.696 9.50526 41.536 8.62526 42.496L4.08926 47.488H12.9453V49.168H1.32926ZM24.8159 49.456C23.4079 49.456 22.1679 49.072 21.0959 48.304C20.0399 47.52 19.2159 46.44 18.6239 45.064C18.0319 43.672 17.7359 42.056 17.7359 40.216C17.7359 38.376 18.0319 36.768 18.6239 35.392C19.2159 34 20.0399 32.92 21.0959 32.152C22.1519 31.384 23.3839 31 24.7919 31C26.1999 31 27.4319 31.384 28.4879 32.152C29.5439 32.92 30.3679 34 30.9599 35.392C31.5519 36.768 31.8479 38.376 31.8479 40.216C31.8479 42.056 31.5519 43.672 30.9599 45.064C30.3839 46.456 29.5679 47.536 28.5119 48.304C27.4559 49.072 26.2239 49.456 24.8159 49.456ZM24.8159 47.656C25.8399 47.656 26.7359 47.344 27.5039 46.72C28.2719 46.096 28.8719 45.232 29.3039 44.128C29.7359 43.008 29.9519 41.704 29.9519 40.216C29.9519 38.728 29.7359 37.432 29.3039 36.328C28.8719 35.208 28.2719 34.344 27.5039 33.736C26.7359 33.112 25.8319 32.8 24.7919 32.8C23.7679 32.8 22.8719 33.112 22.1039 33.736C21.3359 34.344 20.7359 35.208 20.3039 36.328C19.8719 37.432 19.6559 38.728 19.6559 40.216C19.6559 41.688 19.8719 42.984 20.3039 44.104C20.7359 45.224 21.3359 46.096 22.1039 46.72C22.8879 47.344 23.7919 47.656 24.8159 47.656ZM36.658 49.168V47.968L41.65 42.472C42.626 41.4 43.418 40.512 44.026 39.808C44.65 39.104 45.114 38.464 45.418 37.888C45.722 37.312 45.874 36.688 45.874 36.016C45.874 34.944 45.562 34.12 44.938 33.544C44.314 32.968 43.482 32.68 42.442 32.68C41.37 32.68 40.466 32.984 39.73 33.592C39.01 34.2 38.522 35.048 38.266 36.136L36.514 35.752C36.722 34.776 37.098 33.936 37.642 33.232C38.186 32.528 38.866 31.984 39.682 31.6C40.498 31.2 41.41 31 42.418 31C43.49 31 44.426 31.216 45.226 31.648C46.026 32.08 46.65 32.672 47.098 33.424C47.562 34.176 47.794 35.04 47.794 36.016C47.794 36.688 47.65 37.336 47.362 37.96C47.09 38.584 46.674 39.256 46.114 39.976C45.554 40.696 44.834 41.536 43.954 42.496L39.418 47.488H48.274V49.168H36.658ZM58.5366 49.456C57.4166 49.456 56.4246 49.208 55.5606 48.712C54.6966 48.2 54.0166 47.504 53.5206 46.624C53.0246 45.728 52.7766 44.704 52.7766 43.552C52.7766 42.912 52.8486 42.28 52.9926 41.656C53.1526 41.032 53.3846 40.416 53.6886 39.808C54.0086 39.2 54.3926 38.592 54.8406 37.984L59.8806 31.288H62.1846L55.9686 39.424L55.6086 39.64C55.8486 39.24 56.1286 38.936 56.4486 38.728C56.7686 38.504 57.1206 38.344 57.5046 38.248C57.9046 38.152 58.3286 38.104 58.7766 38.104C59.8166 38.104 60.7526 38.352 61.5846 38.848C62.4166 39.328 63.0726 39.992 63.5526 40.84C64.0486 41.688 64.2966 42.672 64.2966 43.792C64.2966 44.864 64.0406 45.832 63.5286 46.696C63.0326 47.544 62.3526 48.216 61.4886 48.712C60.6246 49.208 59.6406 49.456 58.5366 49.456ZM58.5366 47.776C59.2726 47.776 59.9286 47.608 60.5046 47.272C61.0806 46.92 61.5366 46.44 61.8726 45.832C62.2086 45.224 62.3766 44.544 62.3766 43.792C62.3766 43.024 62.2086 42.344 61.8726 41.752C61.5526 41.16 61.1046 40.696 60.5286 40.36C59.9526 40.008 59.2886 39.832 58.5366 39.832C57.8006 39.832 57.1366 40.008 56.5446 40.36C55.9686 40.696 55.5126 41.16 55.1766 41.752C54.8566 42.344 54.6966 43.024 54.6966 43.792C54.6966 44.544 54.8646 45.224 55.2006 45.832C55.5366 46.44 55.9926 46.92 56.5686 47.272C57.1446 47.608 57.8006 47.776 58.5366 47.776Z"/>
</mask>
<path d="M1.66526 19.168V1.28797H4.92926V19.168H1.66526ZM10.0484 19.168V1.28797H16.7204C17.9364 1.28797 19.0084 1.51197 19.9364 1.95997C20.8804 2.39197 21.6164 3.03197 22.1444 3.87997C22.6724 4.71197 22.9364 5.72797 22.9364 6.92797C22.9364 8.11197 22.6644 9.12797 22.1204 9.97597C21.5924 10.808 20.8644 11.448 19.9364 11.896C19.0084 12.344 17.9364 12.568 16.7204 12.568H13.3124V19.168H10.0484ZM13.3124 9.68797H16.7684C17.3604 9.68797 17.8724 9.57597 18.3044 9.35197C18.7364 9.11197 19.0724 8.78397 19.3124 8.36797C19.5524 7.95197 19.6724 7.47197 19.6724 6.92797C19.6724 6.36797 19.5524 5.88797 19.3124 5.48797C19.0724 5.07197 18.7364 4.75197 18.3044 4.52797C17.8724 4.28797 17.3604 4.16797 16.7684 4.16797H13.3124V9.68797ZM27.2909 19.168V1.28797H39.2189V4.16797H30.5549V9.11197H38.1389V11.992H30.5549V19.168H27.2909ZM43.0334 19.168V1.28797H54.9134V4.16797H46.2974V8.75197H54.4334V11.632H46.2974V16.288H54.9134V19.168H43.0334ZM65.3708 19.456C64.2348 19.456 63.1788 19.248 62.2028 18.832C61.2428 18.416 60.4108 17.84 59.7068 17.104C59.0188 16.352 58.5148 15.48 58.1948 14.488L60.9068 13.312C61.3388 14.336 61.9628 15.144 62.7788 15.736C63.5948 16.312 64.5148 16.6 65.5388 16.6C66.1148 16.6 66.6108 16.512 67.0268 16.336C67.4588 16.144 67.7868 15.888 68.0108 15.568C68.2508 15.248 68.3708 14.864 68.3708 14.416C68.3708 13.888 68.2108 13.456 67.8908 13.12C67.5868 12.768 67.1228 12.496 66.4988 12.304L63.0668 11.2C61.6748 10.768 60.6268 10.12 59.9228 9.25597C59.2188 8.39197 58.8668 7.37597 58.8668 6.20797C58.8668 5.18397 59.1148 4.27997 59.6108 3.49597C60.1228 2.71197 60.8268 2.10397 61.7228 1.67197C62.6348 1.22397 63.6748 0.999968 64.8428 0.999968C65.9148 0.999968 66.8988 1.19197 67.7948 1.57597C68.6908 1.94397 69.4588 2.46397 70.0988 3.13597C70.7548 3.79197 71.2428 4.56797 71.5628 5.46397L68.8748 6.66397C68.5228 5.76797 67.9948 5.07997 67.2908 4.59997C66.5868 4.10397 65.7708 3.85597 64.8428 3.85597C64.2988 3.85597 63.8188 3.95197 63.4028 4.14397C62.9868 4.31997 62.6588 4.57597 62.4188 4.91197C62.1948 5.23197 62.0828 5.61597 62.0828 6.06397C62.0828 6.55997 62.2428 6.99997 62.5628 7.38397C62.8828 7.75197 63.3708 8.03997 64.0268 8.24797L67.3148 9.27997C68.7388 9.74397 69.8028 10.384 70.5068 11.2C71.2268 12.016 71.5868 13.024 71.5868 14.224C71.5868 15.248 71.3228 16.152 70.7948 16.936C70.2668 17.72 69.5388 18.336 68.6108 18.784C67.6828 19.232 66.6028 19.456 65.3708 19.456ZM79.3739 19.168V4.16797H74.7419V1.28797H87.2219V4.16797H82.6619V19.168H79.3739Z" fill="url(#paint0_linear_4452_595)"/>
<path d="M1.66526 19.168H0.665256V20.168H1.66526V19.168ZM1.66526 1.28797V0.287967H0.665256V1.28797H1.66526ZM4.92926 1.28797H5.92926V0.287967H4.92926V1.28797ZM4.92926 19.168V20.168H5.92926V19.168H4.92926ZM1.66526 19.168H2.66526V1.28797H1.66526H0.665256V19.168H1.66526ZM1.66526 1.28797V2.28797H4.92926V1.28797V0.287967H1.66526V1.28797ZM4.92926 1.28797H3.92926V19.168H4.92926H5.92926V1.28797H4.92926ZM4.92926 19.168V18.168H1.66526V19.168V20.168H4.92926V19.168ZM10.0484 19.168H9.04838V20.168H10.0484V19.168ZM10.0484 1.28797V0.287967H9.04838V1.28797H10.0484ZM19.9364 1.95997L19.5016 2.86052L19.5109 2.86499L19.5203 2.86928L19.9364 1.95997ZM22.1444 3.87997L21.2955 4.40855L21.3001 4.41579L22.1444 3.87997ZM22.1204 9.97597L21.2787 9.43601L21.2761 9.44014L22.1204 9.97597ZM19.9364 11.896L20.3711 12.7965L20.3711 12.7965L19.9364 11.896ZM13.3124 12.568V11.568H12.3124V12.568H13.3124ZM13.3124 19.168V20.168H14.3124V19.168H13.3124ZM13.3124 9.68797H12.3124V10.688H13.3124V9.68797ZM18.3044 9.35197L18.7647 10.2397L18.7775 10.2331L18.79 10.2261L18.3044 9.35197ZM19.3124 8.36797L20.1786 8.86769L20.1786 8.86769L19.3124 8.36797ZM19.3124 5.48797L18.4462 5.98769L18.4505 5.99511L18.4549 6.00246L19.3124 5.48797ZM18.3044 4.52797L17.8187 5.40213L17.8313 5.40911L17.8441 5.41572L18.3044 4.52797ZM13.3124 4.16797V3.16797H12.3124V4.16797H13.3124ZM10.0484 19.168H11.0484V1.28797H10.0484H9.04838V19.168H10.0484ZM10.0484 1.28797V2.28797H16.7204V1.28797V0.287967H10.0484V1.28797ZM16.7204 1.28797V2.28797C17.8127 2.28797 18.7315 2.48874 19.5016 2.86052L19.9364 1.95997L20.3711 1.05942C19.2852 0.535195 18.06 0.287967 16.7204 0.287967V1.28797ZM19.9364 1.95997L19.5203 2.86928C20.2932 3.22298 20.8755 3.73395 21.2955 4.40853L22.1444 3.87997L22.9933 3.35141C22.3573 2.32998 21.4676 1.56096 20.3525 1.05066L19.9364 1.95997ZM22.1444 3.87997L21.3001 4.41579C21.7062 5.05578 21.9364 5.87619 21.9364 6.92797H22.9364H23.9364C23.9364 5.57975 23.6386 4.36815 22.9887 3.34414L22.1444 3.87997ZM22.9364 6.92797H21.9364C21.9364 7.95466 21.7023 8.77563 21.2787 9.43601L22.1204 9.97597L22.9621 10.5159C23.6264 9.4803 23.9364 8.26927 23.9364 6.92797H22.9364ZM22.1204 9.97597L21.2761 9.44014C20.8526 10.1074 20.2698 10.6246 19.5016 10.9954L19.9364 11.896L20.3711 12.7965C21.4589 12.2714 22.3322 11.5085 22.9647 10.5118L22.1204 9.97597ZM19.9364 11.896L19.5016 10.9954C18.7315 11.3672 17.8127 11.568 16.7204 11.568V12.568V13.568C18.06 13.568 19.2852 13.3207 20.3711 12.7965L19.9364 11.896ZM16.7204 12.568V11.568H13.3124V12.568V13.568H16.7204V12.568ZM13.3124 12.568H12.3124V19.168H13.3124H14.3124V12.568H13.3124ZM13.3124 19.168V18.168H10.0484V19.168V20.168H13.3124V19.168ZM13.3124 9.68797V10.688H16.7684V9.68797V8.68797H13.3124V9.68797ZM16.7684 9.68797V10.688C17.4863 10.688 18.1629 10.5518 18.7647 10.2397L18.3044 9.35197L17.8441 8.46421C17.5819 8.60015 17.2344 8.68797 16.7684 8.68797V9.68797ZM18.3044 9.35197L18.79 10.2261C19.3756 9.90078 19.8453 9.44539 20.1786 8.86769L19.3124 8.36797L18.4462 7.86825C18.2995 8.12255 18.0971 8.32315 17.8187 8.47781L18.3044 9.35197ZM19.3124 8.36797L20.1786 8.86769C20.5174 8.28044 20.6724 7.62368 20.6724 6.92797H19.6724H18.6724C18.6724 7.32025 18.5874 7.6235 18.4462 7.86825L19.3124 8.36797ZM19.6724 6.92797H20.6724C20.6724 6.22322 20.5203 5.55746 20.1699 4.97347L19.3124 5.48797L18.4549 6.00246C18.5845 6.21848 18.6724 6.51272 18.6724 6.92797H19.6724ZM19.3124 5.48797L20.1786 4.98824C19.8418 4.40449 19.3639 3.95091 18.7647 3.64021L18.3044 4.52797L17.8441 5.41572C18.1089 5.55303 18.303 5.73945 18.4462 5.98769L19.3124 5.48797ZM18.3044 4.52797L18.79 3.65381C18.1826 3.31638 17.4967 3.16797 16.7684 3.16797V4.16797V5.16797C17.224 5.16797 17.5621 5.25956 17.8187 5.40213L18.3044 4.52797ZM16.7684 4.16797V3.16797H13.3124V4.16797V5.16797H16.7684V4.16797ZM13.3124 4.16797H12.3124V9.68797H13.3124H14.3124V4.16797H13.3124ZM27.2909 19.168H26.2909V20.168H27.2909V19.168ZM27.2909 1.28797V0.287967H26.2909V1.28797H27.2909ZM39.2189 1.28797H40.2189V0.287967H39.2189V1.28797ZM39.2189 4.16797V5.16797H40.2189V4.16797H39.2189ZM30.5549 4.16797V3.16797H29.5549V4.16797H30.5549ZM30.5549 9.11197H29.5549V10.112H30.5549V9.11197ZM38.1389 9.11197H39.1389V8.11197H38.1389V9.11197ZM38.1389 11.992V12.992H39.1389V11.992H38.1389ZM30.5549 11.992V10.992H29.5549V11.992H30.5549ZM30.5549 19.168V20.168H31.5549V19.168H30.5549ZM27.2909 19.168H28.2909V1.28797H27.2909H26.2909V19.168H27.2909ZM27.2909 1.28797V2.28797H39.2189V1.28797V0.287967H27.2909V1.28797ZM39.2189 1.28797H38.2189V4.16797H39.2189H40.2189V1.28797H39.2189ZM39.2189 4.16797V3.16797H30.5549V4.16797V5.16797H39.2189V4.16797ZM30.5549 4.16797H29.5549V9.11197H30.5549H31.5549V4.16797H30.5549ZM30.5549 9.11197V10.112H38.1389V9.11197V8.11197H30.5549V9.11197ZM38.1389 9.11197H37.1389V11.992H38.1389H39.1389V9.11197H38.1389ZM38.1389 11.992V10.992H30.5549V11.992V12.992H38.1389V11.992ZM30.5549 11.992H29.5549V19.168H30.5549H31.5549V11.992H30.5549ZM30.5549 19.168V18.168H27.2909V19.168V20.168H30.5549V19.168ZM43.0334 19.168H42.0334V20.168H43.0334V19.168ZM43.0334 1.28797V0.287967H42.0334V1.28797H43.0334ZM54.9134 1.28797H55.9134V0.287967H54.9134V1.28797ZM54.9134 4.16797V5.16797H55.9134V4.16797H54.9134ZM46.2974 4.16797V3.16797H45.2974V4.16797H46.2974ZM46.2974 8.75197H45.2974V9.75197H46.2974V8.75197ZM54.4334 8.75197H55.4334V7.75197H54.4334V8.75197ZM54.4334 11.632V12.632H55.4334V11.632H54.4334ZM46.2974 11.632V10.632H45.2974V11.632H46.2974ZM46.2974 16.288H45.2974V17.288H46.2974V16.288ZM54.9134 16.288H55.9134V15.288H54.9134V16.288ZM54.9134 19.168V20.168H55.9134V19.168H54.9134ZM43.0334 19.168H44.0334V1.28797H43.0334H42.0334V19.168H43.0334ZM43.0334 1.28797V2.28797H54.9134V1.28797V0.287967H43.0334V1.28797ZM54.9134 1.28797H53.9134V4.16797H54.9134H55.9134V1.28797H54.9134ZM54.9134 4.16797V3.16797H46.2974V4.16797V5.16797H54.9134V4.16797ZM46.2974 4.16797H45.2974V8.75197H46.2974H47.2974V4.16797H46.2974ZM46.2974 8.75197V9.75197H54.4334V8.75197V7.75197H46.2974V8.75197ZM54.4334 8.75197H53.4334V11.632H54.4334H55.4334V8.75197H54.4334ZM54.4334 11.632V10.632H46.2974V11.632V12.632H54.4334V11.632ZM46.2974 11.632H45.2974V16.288H46.2974H47.2974V11.632H46.2974ZM46.2974 16.288V17.288H54.9134V16.288V15.288H46.2974V16.288ZM54.9134 16.288H53.9134V19.168H54.9134H55.9134V16.288H54.9134ZM54.9134 19.168V18.168H43.0334V19.168V20.168H54.9134V19.168ZM62.2028 18.832L61.8052 19.7495L61.8107 19.7519L62.2028 18.832ZM59.7068 17.104L58.969 17.779L58.9765 17.7872L58.9842 17.7952L59.7068 17.104ZM58.1948 14.488L57.797 13.5705L56.9646 13.9315L57.2431 14.795L58.1948 14.488ZM60.9068 13.312L61.8282 12.9233L61.4356 11.9927L60.509 12.3945L60.9068 13.312ZM62.7788 15.736L62.1915 16.5455L62.2021 16.5529L62.7788 15.736ZM67.0268 16.336L67.4165 17.2569L67.4247 17.2534L67.433 17.2498L67.0268 16.336ZM68.0108 15.568L67.2108 14.968L67.201 14.9811L67.1916 14.9945L68.0108 15.568ZM67.8908 13.12L67.134 13.7736L67.1499 13.792L67.1667 13.8096L67.8908 13.12ZM66.4988 12.304L66.1926 13.256L66.2047 13.2597L66.4988 12.304ZM63.0668 11.2L63.3731 10.248L63.3632 10.2449L63.0668 11.2ZM59.9228 9.25597L60.6981 8.6243L60.6981 8.6243L59.9228 9.25597ZM59.6108 3.49597L58.7735 2.94918L58.7696 2.95522L58.7657 2.96133L59.6108 3.49597ZM61.7228 1.67197L62.1571 2.57276L62.1637 2.56952L61.7228 1.67197ZM67.7948 1.57597L67.4009 2.49511L67.4079 2.4981L67.4149 2.50099L67.7948 1.57597ZM70.0988 3.13597L69.3747 3.82562L69.3831 3.83445L69.3917 3.84307L70.0988 3.13597ZM71.5628 5.46397L71.9705 6.37711L72.816 5.99964L72.5046 5.12763L71.5628 5.46397ZM68.8748 6.66397L67.9441 7.02962L68.3268 8.00376L69.2825 7.57711L68.8748 6.66397ZM67.2908 4.59997L66.7149 5.41745L66.7211 5.42187L66.7275 5.42619L67.2908 4.59997ZM63.4028 4.14397L63.7925 5.06493L63.8073 5.05867L63.8219 5.05193L63.4028 4.14397ZM62.4188 4.91197L61.605 4.3307L61.5996 4.33851L62.4188 4.91197ZM62.5628 7.38397L61.7946 8.02415L61.8013 8.03222L61.8082 8.04015L62.5628 7.38397ZM64.0268 8.24797L63.7246 9.2012L63.7274 9.20208L64.0268 8.24797ZM67.3148 9.27997L67.6246 8.32911L67.6143 8.32586L67.3148 9.27997ZM70.5068 11.2L69.7496 11.8532L69.757 11.8616L70.5068 11.2ZM70.7948 16.936L71.6243 17.4946L71.6243 17.4946L70.7948 16.936ZM68.6108 18.784L69.0456 19.6845L69.0456 19.6845L68.6108 18.784ZM65.3708 19.456V18.456C64.3599 18.456 63.4384 18.2715 62.5949 17.912L62.2028 18.832L61.8107 19.7519C62.9193 20.2244 64.1097 20.456 65.3708 20.456V19.456ZM62.2028 18.832L62.6004 17.9144C61.7594 17.55 61.0388 17.0497 60.4295 16.4127L59.7068 17.104L58.9842 17.7952C59.7829 18.6302 60.7263 19.282 61.8052 19.7495L62.2028 18.832ZM59.7068 17.104L60.4446 16.429C59.8557 15.7853 59.4235 15.0396 59.1465 14.181L58.1948 14.488L57.2431 14.795C57.6061 15.9204 58.1819 16.9186 58.969 17.779L59.7068 17.104ZM58.1948 14.488L58.5927 15.4054L61.3047 14.2294L60.9068 13.312L60.509 12.3945L57.797 13.5705L58.1948 14.488ZM60.9068 13.312L59.9855 13.7007C60.4809 14.875 61.2131 15.8355 62.1916 16.5454L62.7788 15.736L63.366 14.9265C62.7126 14.4525 62.1968 13.7969 61.8282 12.9233L60.9068 13.312ZM62.7788 15.736L62.2021 16.5529C63.1913 17.2512 64.3139 17.6 65.5388 17.6V16.6V15.6C64.7158 15.6 63.9983 15.3727 63.3555 14.919L62.7788 15.736ZM65.5388 16.6V17.6C66.2133 17.6 66.8483 17.4973 67.4165 17.2569L67.0268 16.336L66.6372 15.415C66.3733 15.5266 66.0163 15.6 65.5388 15.6V16.6ZM67.0268 16.336L67.433 17.2498C67.996 16.9995 68.4819 16.6388 68.8301 16.1414L68.0108 15.568L67.1916 14.9945C67.0918 15.1371 66.9216 15.2884 66.6207 15.4222L67.0268 16.336ZM68.0108 15.568L68.8108 16.168C69.1961 15.6543 69.3708 15.0531 69.3708 14.416H68.3708H67.3708C67.3708 14.6749 67.3055 14.8417 67.2108 14.968L68.0108 15.568ZM68.3708 14.416H69.3708C69.3708 13.6694 69.1368 12.9782 68.615 12.4303L67.8908 13.12L67.1667 13.8096C67.2849 13.9337 67.3708 14.1065 67.3708 14.416H68.3708ZM67.8908 13.12L68.6476 12.4663C68.1808 11.9258 67.5271 11.5741 66.7929 11.3482L66.4988 12.304L66.2047 13.2597C66.7185 13.4178 66.9929 13.6102 67.134 13.7736L67.8908 13.12ZM66.4988 12.304L66.805 11.352L63.373 10.248L63.0668 11.2L62.7606 12.1519L66.1926 13.2559L66.4988 12.304ZM63.0668 11.2L63.3632 10.2449C62.1021 9.85353 61.2447 9.29521 60.6981 8.6243L59.9228 9.25597L59.1476 9.88764C60.0089 10.9447 61.2475 11.6824 62.7704 12.155L63.0668 11.2ZM59.9228 9.25597L60.6981 8.6243C60.1468 7.94776 59.8668 7.15776 59.8668 6.20797H58.8668H57.8668C57.8668 7.59418 58.2908 8.83618 59.1476 9.88764L59.9228 9.25597ZM58.8668 6.20797H59.8668C59.8668 5.35292 60.0714 4.6383 60.4559 4.03061L59.6108 3.49597L58.7657 2.96133C58.1582 3.92164 57.8668 5.01501 57.8668 6.20797H58.8668ZM59.6108 3.49597L60.4481 4.04276C60.8542 3.42084 61.4145 2.93077 62.1571 2.57274L61.7228 1.67197L61.2885 0.771199C60.2391 1.27717 59.3914 2.0031 58.7735 2.94918L59.6108 3.49597ZM61.7228 1.67197L62.1637 2.56952C62.9194 2.19833 63.8048 1.99997 64.8428 1.99997V0.999968V-3.19481e-05C63.5448 -3.19481e-05 62.3503 0.249601 61.2819 0.774414L61.7228 1.67197ZM64.8428 0.999968V1.99997C65.793 1.99997 66.6413 2.16956 67.4009 2.49511L67.7948 1.57597L68.1887 0.656823C67.1564 0.214375 66.0367 -3.19481e-05 64.8428 -3.19481e-05V0.999968ZM67.7948 1.57597L67.4149 2.50099C68.1867 2.81798 68.8359 3.25985 69.3747 3.82562L70.0988 3.13597L70.823 2.44631C70.0818 1.66808 69.1949 1.06995 68.1747 0.650948L67.7948 1.57597ZM70.0988 3.13597L69.3917 3.84307C69.9403 4.39166 70.3496 5.04007 70.6211 5.8003L71.5628 5.46397L72.5046 5.12763C72.1361 4.09587 71.5693 3.19228 70.8059 2.42886L70.0988 3.13597ZM71.5628 5.46397L71.1552 4.55083L68.4672 5.75083L68.8748 6.66397L69.2825 7.57711L71.9705 6.37711L71.5628 5.46397ZM68.8748 6.66397L69.8056 6.29832C69.39 5.24051 68.7451 4.3812 67.8542 3.77374L67.2908 4.59997L66.7275 5.42619C67.2445 5.77874 67.6556 6.29542 67.9441 7.02962L68.8748 6.66397ZM67.2908 4.59997L67.8668 3.78248C66.9809 3.15836 65.9602 2.85597 64.8428 2.85597V3.85597V4.85597C65.5815 4.85597 66.1927 5.04957 66.7149 5.41745L67.2908 4.59997ZM64.8428 3.85597V2.85597C64.1809 2.85597 63.5535 2.97307 62.9838 3.23601L63.4028 4.14397L63.8219 5.05193C64.0842 4.93086 64.4167 4.85597 64.8428 4.85597V3.85597ZM63.4028 4.14397L63.0132 3.223C62.4437 3.46394 61.9624 3.83056 61.6051 4.33073L62.4188 4.91197L63.2326 5.49321C63.3553 5.32138 63.53 5.176 63.7925 5.06493L63.4028 4.14397ZM62.4188 4.91197L61.5996 4.33851C61.2412 4.85045 61.0828 5.44198 61.0828 6.06397H62.0828H63.0828C63.0828 5.78996 63.1484 5.61349 63.2381 5.48543L62.4188 4.91197ZM62.0828 6.06397H61.0828C61.0828 6.79589 61.3261 7.46197 61.7946 8.02415L62.5628 7.38397L63.331 6.74378C63.1595 6.53797 63.0828 6.32405 63.0828 6.06397H62.0828ZM62.5628 7.38397L61.8082 8.04015C62.2886 8.59263 62.9619 8.95939 63.7246 9.2012L64.0268 8.24797L64.3291 7.29474C63.7797 7.12055 63.477 6.91131 63.3174 6.72779L62.5628 7.38397ZM64.0268 8.24797L63.7274 9.20208L67.0154 10.2341L67.3148 9.27997L67.6143 8.32586L64.3263 7.29386L64.0268 8.24797ZM67.3148 9.27997L67.005 10.2308C68.3202 10.6593 69.2026 11.2191 69.7497 11.8532L70.5068 11.2L71.264 10.5467C70.4031 9.54886 69.1574 8.82862 67.6246 8.32917L67.3148 9.27997ZM70.5068 11.2L69.757 11.8616C70.2988 12.4756 70.5868 13.2407 70.5868 14.224H71.5868H72.5868C72.5868 12.8073 72.1549 11.5563 71.2567 10.5383L70.5068 11.2ZM71.5868 14.224H70.5868C70.5868 15.0663 70.3729 15.7723 69.9654 16.3774L70.7948 16.936L71.6243 17.4946C72.2728 16.5316 72.5868 15.4296 72.5868 14.224H71.5868ZM70.7948 16.936L69.9654 16.3774C69.5451 17.0014 68.9594 17.5053 68.1761 17.8834L68.6108 18.784L69.0456 19.6845C70.1183 19.1667 70.9885 18.4386 71.6243 17.4946L70.7948 16.936ZM68.6108 18.784L68.1761 17.8834C67.4076 18.2544 66.4814 18.456 65.3708 18.456V19.456V20.456C66.7243 20.456 67.958 20.2095 69.0456 19.6845L68.6108 18.784ZM79.3739 19.168H78.3739V20.168H79.3739V19.168ZM79.3739 4.16797H80.3739V3.16797H79.3739V4.16797ZM74.7419 4.16797H73.7419V5.16797H74.7419V4.16797ZM74.7419 1.28797V0.287967H73.7419V1.28797H74.7419ZM87.2219 1.28797H88.2219V0.287967H87.2219V1.28797ZM87.2219 4.16797V5.16797H88.2219V4.16797H87.2219ZM82.6619 4.16797V3.16797H81.6619V4.16797H82.6619ZM82.6619 19.168V20.168H83.6619V19.168H82.6619ZM79.3739 19.168H80.3739V4.16797H79.3739H78.3739V19.168H79.3739ZM79.3739 4.16797V3.16797H74.7419V4.16797V5.16797H79.3739V4.16797ZM74.7419 4.16797H75.7419V1.28797H74.7419H73.7419V4.16797H74.7419ZM74.7419 1.28797V2.28797H87.2219V1.28797V0.287967H74.7419V1.28797ZM87.2219 1.28797H86.2219V4.16797H87.2219H88.2219V1.28797H87.2219ZM87.2219 4.16797V3.16797H82.6619V4.16797V5.16797H87.2219V4.16797ZM82.6619 4.16797H81.6619V19.168H82.6619H83.6619V4.16797H82.6619ZM82.6619 19.168V18.168H79.3739V19.168V20.168H82.6619V19.168ZM1.32926 49.168H0.329256V50.168H1.32926V49.168ZM1.32926 47.968L0.589023 47.2956L0.329256 47.5816V47.968H1.32926ZM6.32126 42.472L5.58182 41.7987L5.58102 41.7996L6.32126 42.472ZM8.69726 39.808L7.94885 39.1446L7.94043 39.1543L8.69726 39.808ZM10.0893 37.888L9.20487 37.4212L9.20487 37.4212L10.0893 37.888ZM4.40126 33.592L3.76434 32.821L3.75607 32.8279L4.40126 33.592ZM2.93726 36.136L2.72316 37.1128L3.68512 37.3236L3.91067 36.365L2.93726 36.136ZM1.18526 35.752L0.207219 35.5435L-1.08045e-05 36.5159L0.97116 36.7288L1.18526 35.752ZM2.31326 33.232L1.52197 32.6205L1.52197 32.6205L2.31326 33.232ZM4.35326 31.6L4.77905 32.5048L4.78626 32.5014L4.79341 32.4979L4.35326 31.6ZM11.7693 33.424L10.9102 33.9358L10.9141 33.9425L10.9182 33.9491L11.7693 33.424ZM12.0333 37.96L11.1253 37.5409L11.1208 37.5506L11.1166 37.5604L12.0333 37.96ZM10.7853 39.976L11.5746 40.5899L11.5746 40.5899L10.7853 39.976ZM8.62526 42.496L7.8881 41.8202L7.88516 41.8235L8.62526 42.496ZM4.08926 47.488L3.34915 46.8155L1.82944 48.488H4.08926V47.488ZM12.9453 47.488H13.9453V46.488H12.9453V47.488ZM12.9453 49.168V50.168H13.9453V49.168H12.9453ZM1.32926 49.168H2.32926V47.968H1.32926H0.329256V49.168H1.32926ZM1.32926 47.968L2.06949 48.6403L7.06149 43.1443L6.32126 42.472L5.58102 41.7996L0.589023 47.2956L1.32926 47.968ZM6.32126 42.472L7.0607 43.1452C8.03973 42.0699 8.83815 41.1748 9.45408 40.4616L8.69726 39.808L7.94043 39.1543C7.34036 39.8492 6.55478 40.7301 5.58182 41.7987L6.32126 42.472ZM8.69726 39.808L9.4456 40.4713C10.1014 39.7314 10.6198 39.0251 10.9736 38.3547L10.0893 37.888L9.20487 37.4212C8.95066 37.9029 8.54113 38.4765 7.94891 39.1447L8.69726 39.808ZM10.0893 37.888L10.9736 38.3547C11.356 37.6302 11.5453 36.8453 11.5453 36.016H10.5453H9.54526C9.54526 36.5307 9.43048 36.9937 9.20487 37.4212L10.0893 37.888ZM10.5453 36.016H11.5453C11.5453 34.743 11.1677 33.6216 10.2875 32.8092L9.60926 33.544L8.93098 34.2788C9.2988 34.6183 9.54526 35.145 9.54526 36.016H10.5453ZM9.60926 33.544L10.2875 32.8092C9.4394 32.0263 8.34531 31.68 7.11326 31.68V32.68V33.68C7.9612 33.68 8.53111 33.9097 8.93098 34.2788L9.60926 33.544ZM7.11326 32.68V31.68C5.83915 31.68 4.70168 32.0467 3.76437 32.821L4.40126 33.592L5.03814 34.3629C5.57283 33.9212 6.24337 33.68 7.11326 33.68V32.68ZM4.40126 33.592L3.75607 32.8279C2.8432 33.5988 2.25957 34.6501 1.96384 35.9069L2.93726 36.136L3.91067 36.365C4.12694 35.4459 4.51932 34.8011 5.04644 34.356L4.40126 33.592ZM2.93726 36.136L3.15135 35.1592L1.39935 34.7752L1.18526 35.752L0.97116 36.7288L2.72316 37.1128L2.93726 36.136ZM1.18526 35.752L2.16329 35.9604C2.34387 35.1131 2.66282 34.4151 3.10454 33.8434L2.31326 33.232L1.52197 32.6205C0.875689 33.4569 0.442642 34.4389 0.207219 35.5435L1.18526 35.752ZM2.31326 33.232L3.10454 33.8434C3.5503 33.2665 4.10437 32.8223 4.77905 32.5048L4.35326 31.6L3.92746 30.6951C2.97015 31.1457 2.16421 31.7894 1.52197 32.6205L2.31326 33.232ZM4.35326 31.6L4.79341 32.4979C5.45803 32.1721 6.21698 32 7.08926 32V31V30C5.94553 30 4.88048 30.2278 3.9131 30.702L4.35326 31.6ZM7.08926 31V32C8.0251 32 8.79217 32.1877 9.42211 32.5279L9.89726 31.648L10.3724 30.7681C9.40234 30.2442 8.29742 30 7.08926 30V31ZM9.89726 31.648L9.42211 32.5279C10.0697 32.8776 10.5582 33.345 10.9102 33.9358L11.7693 33.424L12.6284 32.9122C12.0843 31.9989 11.3248 31.2824 10.3724 30.7681L9.89726 31.648ZM11.7693 33.424L10.9182 33.9491C11.2748 34.527 11.4653 35.2054 11.4653 36.016H12.4653H13.4653C13.4653 34.8745 13.1917 33.8249 12.6203 32.8989L11.7693 33.424ZM12.4653 36.016H11.4653C11.4653 36.5399 11.3541 37.0452 11.1253 37.5409L12.0333 37.96L12.9412 38.379C13.2884 37.6267 13.4653 36.836 13.4653 36.016H12.4653ZM12.0333 37.96L11.1166 37.5604C10.887 38.087 10.5208 38.6871 9.9959 39.362L10.7853 39.976L11.5746 40.5899C12.1697 39.8248 12.6355 39.0809 12.95 38.3596L12.0333 37.96ZM10.7853 39.976L9.9959 39.362C9.45779 40.0539 8.75687 40.8725 7.8881 41.8202L8.62526 42.496L9.36241 43.1717C10.2536 42.1994 10.9927 41.338 11.5746 40.5899L10.7853 39.976ZM8.62526 42.496L7.88516 41.8235L3.34915 46.8155L4.08926 47.488L4.82936 48.1605L9.36536 43.1685L8.62526 42.496ZM4.08926 47.488V48.488H12.9453V47.488V46.488H4.08926V47.488ZM12.9453 47.488H11.9453V49.168H12.9453H13.9453V47.488H12.9453ZM12.9453 49.168V48.168H1.32926V49.168V50.168H12.9453V49.168ZM21.0959 48.304L20.4998 49.1069L20.5066 49.1119L20.5135 49.1169L21.0959 48.304ZM18.6239 45.064L17.7036 45.4553L17.7053 45.4592L18.6239 45.064ZM18.6239 35.392L19.5425 35.7872L19.5441 35.7833L18.6239 35.392ZM21.0959 32.152L20.5077 31.3432L20.5077 31.3432L21.0959 32.152ZM28.4879 32.152L29.0761 31.3432L29.0761 31.3432L28.4879 32.152ZM30.9599 35.392L30.0396 35.7833L30.0413 35.7872L30.9599 35.392ZM30.9599 45.064L30.0396 44.6726L30.0359 44.6816L30.9599 45.064ZM28.5119 48.304L29.1001 49.1127L29.1001 49.1127L28.5119 48.304ZM27.5039 46.72L28.1345 47.4961L28.1345 47.4961L27.5039 46.72ZM29.3039 44.128L30.2351 44.4924L30.2369 44.4878L29.3039 44.128ZM29.3039 36.328L28.3709 36.6878L28.3726 36.6924L29.3039 36.328ZM27.5039 33.736L26.8732 34.5121L26.8832 34.52L27.5039 33.736ZM22.1039 33.736L22.7246 34.5201L22.7345 34.5121L22.1039 33.736ZM20.3039 36.328L21.2351 36.6924L21.2369 36.6878L20.3039 36.328ZM20.3039 44.104L19.3709 44.4638L19.3709 44.4638L20.3039 44.104ZM22.1039 46.72L21.4733 47.4961L21.4811 47.5024L22.1039 46.72ZM24.8159 49.456V48.456C23.6018 48.456 22.5687 48.129 21.6783 47.4911L21.0959 48.304L20.5135 49.1169C21.7671 50.015 23.2139 50.456 24.8159 50.456V49.456ZM21.0959 48.304L21.692 47.5011C20.7963 46.8361 20.0746 45.9057 19.5425 44.6688L18.6239 45.064L17.7053 45.4592C18.3571 46.9742 19.2835 48.2039 20.4998 49.1069L21.0959 48.304ZM18.6239 45.064L19.5441 44.6726C19.0148 43.4281 18.7359 41.9499 18.7359 40.216H17.7359H16.7359C16.7359 42.1621 17.0489 43.9159 17.7036 45.4553L18.6239 45.064ZM17.7359 40.216H18.7359C18.7359 38.4817 19.015 37.0133 19.5425 35.7872L18.6239 35.392L17.7053 34.9968C17.0488 36.5226 16.7359 38.2703 16.7359 40.216H17.7359ZM18.6239 35.392L19.5441 35.7833C20.0767 34.5311 20.7964 33.6063 21.6841 32.9607L21.0959 32.152L20.5077 31.3432C19.2834 32.2336 18.3551 33.4688 17.7036 35.0006L18.6239 35.392ZM21.0959 32.152L21.6841 32.9607C22.5555 32.3269 23.5777 32 24.7919 32V31V30C23.19 30 21.7483 30.441 20.5077 31.3432L21.0959 32.152ZM24.7919 31V32C26.006 32 27.0283 32.3269 27.8997 32.9607L28.4879 32.152L29.0761 31.3432C27.8355 30.441 26.3937 30 24.7919 30V31ZM28.4879 32.152L27.8997 32.9607C28.7874 33.6063 29.5071 34.5311 30.0396 35.7833L30.9599 35.392L31.8801 35.0006C31.2287 33.4688 30.3004 32.2336 29.0761 31.3432L28.4879 32.152ZM30.9599 35.392L30.0413 35.7872C30.5688 37.0133 30.8479 38.4817 30.8479 40.216H31.8479H32.8479C32.8479 38.2703 32.535 36.5226 31.8785 34.9968L30.9599 35.392ZM31.8479 40.216H30.8479C30.8479 41.9499 30.5689 43.4281 30.0396 44.6726L30.9599 45.064L31.8801 45.4553C32.5348 43.9159 32.8479 42.1621 32.8479 40.216H31.8479ZM30.9599 45.064L30.0359 44.6816C29.5193 45.9299 28.8089 46.8515 27.9237 47.4952L28.5119 48.304L29.1001 49.1127C30.3269 48.2204 31.2484 46.982 31.8839 45.4463L30.9599 45.064ZM28.5119 48.304L27.9237 47.4952C27.0523 48.129 26.03 48.456 24.8159 48.456V49.456V50.456C26.4177 50.456 27.8595 50.0149 29.1001 49.1127L28.5119 48.304ZM24.8159 47.656V48.656C26.0609 48.656 27.1816 48.2703 28.1345 47.4961L27.5039 46.72L26.8733 45.9439C26.2902 46.4177 25.6189 46.656 24.8159 46.656V47.656ZM27.5039 46.72L28.1345 47.4961C29.0608 46.7434 29.7526 45.7254 30.2351 44.4924L29.3039 44.128L28.3726 43.7636C27.9911 44.7385 27.4829 45.4485 26.8733 45.9439L27.5039 46.72ZM29.3039 44.128L30.2369 44.4878C30.7224 43.2292 30.9519 41.7986 30.9519 40.216H29.9519H28.9519C28.9519 41.6094 28.7494 42.7868 28.3709 43.7681L29.3039 44.128ZM29.9519 40.216H30.9519C30.9519 38.6339 30.7225 37.2091 30.2351 35.9636L29.3039 36.328L28.3726 36.6924C28.7492 37.6548 28.9519 38.8221 28.9519 40.216H29.9519ZM29.3039 36.328L30.2369 35.9681C29.755 34.7188 29.0612 33.6934 28.1246 32.9519L27.5039 33.736L26.8832 34.52C27.4826 34.9946 27.9888 35.6971 28.3709 36.6878L29.3039 36.328ZM27.5039 33.736L28.1345 32.9599C27.1787 32.1832 26.0489 31.8 24.7919 31.8V32.8V33.8C25.6149 33.8 26.2931 34.0407 26.8733 34.5121L27.5039 33.736ZM24.7919 32.8V31.8C23.5469 31.8 22.4262 32.1857 21.4733 32.9599L22.1039 33.736L22.7345 34.5121C23.3176 34.0383 23.9889 33.8 24.7919 33.8V32.8ZM22.1039 33.736L21.4832 32.9519C20.5466 33.6934 19.8528 34.7188 19.3709 35.9681L20.3039 36.328L21.2369 36.6878C21.619 35.6971 22.1252 34.9946 22.7246 34.52L22.1039 33.736ZM20.3039 36.328L19.3726 35.9636C18.8852 37.2091 18.6559 38.6339 18.6559 40.216H19.6559H20.6559C20.6559 38.8221 20.8585 37.6548 21.2351 36.6924L20.3039 36.328ZM19.6559 40.216H18.6559C18.6559 41.7841 18.8858 43.2063 19.3709 44.4638L20.3039 44.104L21.2369 43.7441C20.8579 42.7616 20.6559 41.5919 20.6559 40.216H19.6559ZM20.3039 44.104L19.3709 44.4638C19.8523 45.712 20.5438 46.7409 21.4733 47.4961L22.1039 46.72L22.7345 45.9439C22.128 45.4511 21.6194 44.7359 21.2369 43.7441L20.3039 44.104ZM22.1039 46.72L21.4811 47.5024C22.4463 48.2706 23.571 48.656 24.8159 48.656V47.656V46.656C24.0127 46.656 23.3295 46.4174 22.7266 45.9375L22.1039 46.72ZM36.658 49.168H35.658V50.168H36.658V49.168ZM36.658 47.968L35.9178 47.2956L35.658 47.5816V47.968H36.658ZM41.65 42.472L40.9106 41.7987L40.9098 41.7996L41.65 42.472ZM44.026 39.808L43.2776 39.1446L43.2692 39.1543L44.026 39.808ZM45.418 37.888L44.5336 37.4212L44.5336 37.4212L45.418 37.888ZM39.73 33.592L39.0931 32.821L39.0848 32.8279L39.73 33.592ZM38.266 36.136L38.0519 37.1128L39.0139 37.3236L39.2394 36.365L38.266 36.136ZM36.514 35.752L35.536 35.5435L35.3287 36.5159L36.2999 36.7288L36.514 35.752ZM37.642 33.232L36.8507 32.6205L36.8507 32.6205L37.642 33.232ZM39.682 31.6L40.1078 32.5048L40.115 32.5014L40.1222 32.4979L39.682 31.6ZM47.098 33.424L46.2389 33.9358L46.2429 33.9425L46.247 33.9491L47.098 33.424ZM47.362 37.96L46.454 37.5409L46.4496 37.5506L46.4453 37.5604L47.362 37.96ZM46.114 39.976L46.9034 40.5899L46.9034 40.5899L46.114 39.976ZM43.954 42.496L43.2168 41.8202L43.2139 41.8235L43.954 42.496ZM39.418 47.488L38.6779 46.8155L37.1582 48.488H39.418V47.488ZM48.274 47.488H49.274V46.488H48.274V47.488ZM48.274 49.168V50.168H49.274V49.168H48.274ZM36.658 49.168H37.658V47.968H36.658H35.658V49.168H36.658ZM36.658 47.968L37.3982 48.6403L42.3902 43.1443L41.65 42.472L40.9098 41.7996L35.9178 47.2956L36.658 47.968ZM41.65 42.472L42.3894 43.1452C43.3685 42.0699 44.1669 41.1748 44.7828 40.4616L44.026 39.808L43.2692 39.1543C42.6691 39.8492 41.8835 40.7301 40.9106 41.7987L41.65 42.472ZM44.026 39.808L44.7744 40.4713C45.4301 39.7314 45.9486 39.0251 46.3024 38.3547L45.418 37.888L44.5336 37.4212C44.2794 37.9029 43.8699 38.4765 43.2777 39.1447L44.026 39.808ZM45.418 37.888L46.3024 38.3547C46.6848 37.6302 46.874 36.8453 46.874 36.016H45.874H44.874C44.874 36.5307 44.7592 36.9937 44.5336 37.4212L45.418 37.888ZM45.874 36.016H46.874C46.874 34.743 46.4965 33.6216 45.6163 32.8092L44.938 33.544L44.2597 34.2788C44.6276 34.6183 44.874 35.145 44.874 36.016H45.874ZM44.938 33.544L45.6163 32.8092C44.7682 32.0263 43.6741 31.68 42.442 31.68V32.68V33.68C43.29 33.68 43.8599 33.9097 44.2597 34.2788L44.938 33.544ZM42.442 32.68V31.68C41.1679 31.68 40.0304 32.0467 39.0931 32.821L39.73 33.592L40.3669 34.3629C40.9016 33.9212 41.5721 33.68 42.442 33.68V32.68ZM39.73 33.592L39.0848 32.8279C38.1719 33.5988 37.5883 34.6501 37.2926 35.9069L38.266 36.136L39.2394 36.365C39.4557 35.4459 39.8481 34.8011 40.3752 34.356L39.73 33.592ZM38.266 36.136L38.4801 35.1592L36.7281 34.7752L36.514 35.752L36.2999 36.7288L38.0519 37.1128L38.266 36.136ZM36.514 35.752L37.492 35.9604C37.6726 35.1131 37.9916 34.4151 38.4333 33.8434L37.642 33.232L36.8507 32.6205C36.2044 33.4569 35.7714 34.4389 35.536 35.5435L36.514 35.752ZM37.642 33.232L38.4333 33.8434C38.8791 33.2665 39.4331 32.8223 40.1078 32.5048L39.682 31.6L39.2562 30.6951C38.2989 31.1457 37.493 31.7894 36.8507 32.6205L37.642 33.232ZM39.682 31.6L40.1222 32.4979C40.7868 32.1721 41.5457 32 42.418 32V31V30C41.2743 30 40.2092 30.2278 39.2418 30.702L39.682 31.6ZM42.418 31V32C43.3538 32 44.1209 32.1877 44.7509 32.5279L45.226 31.648L45.7012 30.7681C44.7311 30.2442 43.6262 30 42.418 30V31ZM45.226 31.648L44.7509 32.5279C45.3984 32.8776 45.887 33.345 46.2389 33.9358L47.098 33.424L47.9571 32.9122C47.413 31.9989 46.6536 31.2824 45.7012 30.7681L45.226 31.648ZM47.098 33.424L46.247 33.9491C46.6036 34.527 46.794 35.2054 46.794 36.016H47.794H48.794C48.794 34.8745 48.5204 33.8249 47.949 32.8989L47.098 33.424ZM47.794 36.016H46.794C46.794 36.5399 46.6828 37.0452 46.454 37.5409L47.362 37.96L48.27 38.379C48.6172 37.6267 48.794 36.836 48.794 36.016H47.794ZM47.362 37.96L46.4453 37.5604C46.2157 38.087 45.8496 38.6871 45.3247 39.362L46.114 39.976L46.9034 40.5899C47.4984 39.8248 47.9643 39.0809 48.2787 38.3596L47.362 37.96ZM46.114 39.976L45.3247 39.362C44.7865 40.0539 44.0856 40.8725 43.2169 41.8202L43.954 42.496L44.6912 43.1717C45.5824 42.1994 46.3215 41.338 46.9034 40.5899L46.114 39.976ZM43.954 42.496L43.2139 41.8235L38.6779 46.8155L39.418 47.488L40.1581 48.1605L44.6941 43.1685L43.954 42.496ZM39.418 47.488V48.488H48.274V47.488V46.488H39.418V47.488ZM48.274 47.488H47.274V49.168H48.274H49.274V47.488H48.274ZM48.274 49.168V48.168H36.658V49.168V50.168H48.274V49.168ZM55.5606 48.712L55.0508 49.5723L55.0628 49.5792L55.5606 48.712ZM53.5206 46.624L52.6457 47.1083L52.6495 47.115L53.5206 46.624ZM52.9926 41.656L52.024 41.4076L52.021 41.4193L52.0182 41.4311L52.9926 41.656ZM53.6886 39.808L52.8037 39.3422L52.7989 39.3514L52.7942 39.3608L53.6886 39.808ZM54.8406 37.984L54.0416 37.3826L54.0356 37.3908L54.8406 37.984ZM59.8806 31.288V30.288H59.3817L59.0817 30.6866L59.8806 31.288ZM62.1846 31.288L62.9793 31.8951L64.2071 30.288H62.1846V31.288ZM55.9686 39.424L56.4831 40.2815L56.6471 40.1831L56.7633 40.0311L55.9686 39.424ZM55.6086 39.64L54.7511 39.1255L56.1231 40.4975L55.6086 39.64ZM56.4486 38.728L56.9936 39.5664L57.008 39.5571L57.0221 39.5472L56.4486 38.728ZM57.5046 38.248L57.2712 37.2755L57.2621 37.2778L57.5046 38.248ZM61.5846 38.848L61.0726 39.7069L61.0787 39.7106L61.0849 39.7142L61.5846 38.848ZM63.5526 40.84L62.6824 41.3326L62.6859 41.3387L62.6894 41.3449L63.5526 40.84ZM63.5286 46.696L62.6683 46.1862L62.6654 46.1911L63.5286 46.696ZM61.4886 48.712L60.9908 47.8447L60.9908 47.8447L61.4886 48.712ZM60.5046 47.272L61.0085 48.1357L61.0173 48.1306L61.0261 48.1253L60.5046 47.272ZM61.8726 45.832L60.9974 45.3483L60.9974 45.3483L61.8726 45.832ZM61.8726 41.752L60.9929 42.2275L60.9978 42.2366L61.0029 42.2456L61.8726 41.752ZM60.5286 40.36L60.0072 41.2133L60.0159 41.2186L60.0248 41.2237L60.5286 40.36ZM56.5446 40.36L57.0485 41.2238L57.0557 41.2195L56.5446 40.36ZM55.1766 41.752L54.3069 41.2584L54.3018 41.2674L54.2969 41.2765L55.1766 41.752ZM55.2006 45.832L56.0759 45.3483L56.0759 45.3483L55.2006 45.832ZM56.5686 47.272L56.0472 48.1253L56.0559 48.1306L56.0648 48.1357L56.5686 47.272ZM58.5366 49.456V48.456C57.5692 48.456 56.7529 48.2433 56.0585 47.8447L55.5606 48.712L55.0628 49.5792C56.0964 50.1726 57.2641 50.456 58.5366 50.456V49.456ZM55.5606 48.712L56.0704 47.8517C55.3581 47.4295 54.8023 46.8613 54.3918 46.133L53.5206 46.624L52.6495 47.115C53.231 48.1467 54.0352 48.9704 55.0508 49.5723L55.5606 48.712ZM53.5206 46.624L54.3955 46.1397C53.9914 45.4096 53.7766 44.5561 53.7766 43.552H52.7766H51.7766C51.7766 44.8519 52.0579 46.0463 52.6457 47.1083L53.5206 46.624ZM52.7766 43.552H53.7766C53.7766 42.9877 53.84 42.4311 53.967 41.8808L52.9926 41.656L52.0182 41.4311C51.8572 42.1288 51.7766 42.8362 51.7766 43.552H52.7766ZM52.9926 41.656L53.9613 41.9043C54.1027 41.3527 54.309 40.8032 54.5831 40.2552L53.6886 39.808L52.7942 39.3608C52.4602 40.0287 52.2025 40.7112 52.024 41.4076L52.9926 41.656ZM53.6886 39.808L54.5736 40.2737C54.868 39.7143 55.2246 39.1487 55.6457 38.5772L54.8406 37.984L54.0356 37.3908C53.5607 38.0353 53.1493 38.6857 52.8037 39.3422L53.6886 39.808ZM54.8406 37.984L55.6396 38.5853L60.6796 31.8893L59.8806 31.288L59.0817 30.6866L54.0417 37.3826L54.8406 37.984ZM59.8806 31.288V32.288H62.1846V31.288V30.288H59.8806V31.288ZM62.1846 31.288L61.39 30.6809L55.174 38.8169L55.9686 39.424L56.7633 40.0311L62.9793 31.8951L62.1846 31.288ZM55.9686 39.424L55.4541 38.5665L55.0941 38.7825L55.6086 39.64L56.1231 40.4975L56.4831 40.2815L55.9686 39.424ZM55.6086 39.64L56.4661 40.1545C56.645 39.8563 56.8262 39.6752 56.9936 39.5664L56.4486 38.728L55.9036 37.8895C55.431 38.1967 55.0523 38.6236 54.7511 39.1255L55.6086 39.64ZM56.4486 38.728L57.0221 39.5472C57.2406 39.3943 57.4802 39.2849 57.7472 39.2181L57.5046 38.248L57.2621 37.2778C56.7611 37.4031 56.2967 37.6137 55.8752 37.9087L56.4486 38.728ZM57.5046 38.248L57.738 39.2204C58.0551 39.1442 58.4003 39.104 58.7766 39.104V38.104V37.104C58.2569 37.104 57.7541 37.1597 57.2713 37.2756L57.5046 38.248ZM58.7766 38.104V39.104C59.6501 39.104 60.4068 39.31 61.0726 39.7069L61.5846 38.848L62.0967 37.989C61.0984 37.3939 59.9831 37.104 58.7766 37.104V38.104ZM61.5846 38.848L61.0849 39.7142C61.7599 40.1036 62.289 40.6376 62.6824 41.3326L63.5526 40.84L64.4229 40.3474C63.8563 39.3464 63.0733 38.5523 62.0844 37.9818L61.5846 38.848ZM63.5526 40.84L62.6894 41.3449C63.0839 42.0192 63.2966 42.8241 63.2966 43.792H64.2966H65.2966C65.2966 42.5198 65.0134 41.3567 64.4158 40.3351L63.5526 40.84ZM64.2966 43.792H63.2966C63.2966 44.6971 63.0827 45.4869 62.6683 46.1862L63.5286 46.696L64.3889 47.2058C64.9986 46.177 65.2966 45.0308 65.2966 43.792H64.2966ZM63.5286 46.696L62.6654 46.1911C62.2588 46.8863 61.7057 47.4343 60.9908 47.8447L61.4886 48.712L61.9865 49.5792C62.9996 48.9977 63.8064 48.2017 64.3918 47.2009L63.5286 46.696ZM61.4886 48.712L60.9908 47.8447C60.2942 48.2446 59.4853 48.456 58.5366 48.456V49.456V50.456C59.796 50.456 60.955 50.1714 61.9865 49.5792L61.4886 48.712ZM58.5366 47.776V48.776C59.4308 48.776 60.2641 48.57 61.0085 48.1357L60.5046 47.272L60.0008 46.4082C59.5932 46.6459 59.1144 46.776 58.5366 46.776V47.776ZM60.5046 47.272L61.0261 48.1253C61.7545 47.6801 62.3305 47.0708 62.7479 46.3157L61.8726 45.832L60.9974 45.3483C60.7427 45.8091 60.4068 46.1598 59.9832 46.4187L60.5046 47.272ZM61.8726 45.832L62.7479 46.3157C63.1724 45.5475 63.3766 44.6988 63.3766 43.792H62.3766H61.3766C61.3766 44.3891 61.2449 44.9004 60.9974 45.3483L61.8726 45.832ZM62.3766 43.792H63.3766C63.3766 42.8735 63.1742 42.0194 62.7423 41.2584L61.8726 41.752L61.0029 42.2456C61.243 42.6686 61.3766 43.1744 61.3766 43.792H62.3766ZM61.8726 41.752L62.7523 41.2765C62.3459 40.5246 61.7686 39.9256 61.0325 39.4962L60.5286 40.36L60.0248 41.2237C60.4407 41.4664 60.7594 41.7954 60.9929 42.2275L61.8726 41.752ZM60.5286 40.36L61.0501 39.5067C60.2996 39.0481 59.4511 38.832 58.5366 38.832V39.832V40.832C59.1262 40.832 59.6056 40.9679 60.0072 41.2133L60.5286 40.36ZM58.5366 39.832V38.832C57.6336 38.832 56.7908 39.0502 56.0336 39.5004L56.5446 40.36L57.0557 41.2195C57.4824 40.9658 57.9677 40.832 58.5366 40.832V39.832ZM56.5446 40.36L56.0408 39.4962C55.309 39.9231 54.7282 40.5162 54.3069 41.2584L55.1766 41.752L56.0463 42.2456C56.2971 41.8037 56.6283 41.4689 57.0485 41.2237L56.5446 40.36ZM55.1766 41.752L54.2969 41.2765C53.8874 42.034 53.6966 42.8816 53.6966 43.792H54.6966H55.6966C55.6966 43.1663 55.8258 42.6539 56.0563 42.2275L55.1766 41.752ZM54.6966 43.792H53.6966C53.6966 44.6988 53.9009 45.5475 54.3254 46.3157L55.2006 45.832L56.0759 45.3483C55.8284 44.9004 55.6966 44.3891 55.6966 43.792H54.6966ZM55.2006 45.832L54.3254 46.3157C54.7427 47.0708 55.3188 47.6801 56.0472 48.1253L56.5686 47.272L57.0901 46.4187C56.6665 46.1598 56.3305 45.8091 56.0759 45.3483L55.2006 45.832ZM56.5686 47.272L56.0648 48.1357C56.8092 48.57 57.6424 48.776 58.5366 48.776V47.776V46.776C57.9588 46.776 57.4801 46.6459 57.0725 46.4082L56.5686 47.272Z" fill="url(#paint1_linear_4452_595)" mask="url(#path-1-outside-1_4452_595)"/>
<defs>
<linearGradient id="paint0_linear_4452_595" x1="-0.0627441" y1="20.668" x2="93.9373" y2="20.668" gradientUnits="userSpaceOnUse">
<stop stop-color="#F1A087"/>
<stop offset="0.33" stop-color="#E45F75"/>
<stop offset="0.66" stop-color="#4C41A9"/>
<stop offset="1" stop-color="#7E62D9"/>
</linearGradient>
<linearGradient id="paint1_linear_4452_595" x1="-0.0627441" y1="20.668" x2="93.9373" y2="20.668" gradientUnits="userSpaceOnUse">
<stop stop-color="#F1A087"/>
<stop offset="0.33" stop-color="#E45F75"/>
<stop offset="0.66" stop-color="#4C41A9"/>
<stop offset="1" stop-color="#7E62D9"/>
</linearGradient>
</defs>
</svg>
